<?xml version="1.0" encoding="utf-8"?>
<!-- Generator: Adobe Illustrator 23.0.4, SVG Export Plug-In . SVG Version: 6.00 Build 0)  -->
<svg version="1.1" id="Layer_1" xmlns="http://www.w3.org/2000/svg" xmlns:xlink="http://www.w3.org/1999/xlink" x="0px" y="0px"
	 viewBox="0 0 8192 4034" style="enable-background:new 0 0 8192 4034;" xml:space="preserve">
<style type="text/css">
	.st0{fill:#FFFFFF;}
	.st1{fill-rule:evenodd;clip-rule:evenodd;fill:#D9135D;}
	.st2{fill:none;stroke:#FFFFFF;stroke-width:63;stroke-linecap:square;stroke-linejoin:round;}
	.st3{fill-rule:evenodd;clip-rule:evenodd;fill:#FFFFFF;}
	.st4{fill:#D9135D;}
	.st5{fill-rule:evenodd;clip-rule:evenodd;fill:#321A35;}
	.st6{fill:#321A35;}
	.st7{fill:none;stroke:#321A35;stroke-width:51;}
	.st8{fill:none;stroke:#D9135D;stroke-width:51;}
	.st9{fill:none;stroke:#321A35;stroke-width:30.6;}
</style>
<g>
	<g>
		<path class="st0" d="M5468.7,2396.7v-195.1c0-46.1,54.9-70,88.7-38.6l385.3,358.5c22.4,20.9,22.4,56.4,0,77.2l-385.3,358.5
			c-33.8,31.4-88.7,7.5-88.7-38.6v-195.1h-459.8c-29.1,0-52.8-23.6-52.8-52.8v-221.1c0-29.1,23.6-52.8,52.8-52.8L5468.7,2396.7
			L5468.7,2396.7z"/>
		<g transform="translate(6684 2962)">
			<g>
				<path id="a" class="st1" d="M-1162.5-512.5h-512.6v221.1h512.6v247.9l385.3-358.5l-385.3-358.5V-512.5z"/>
			</g>
			<path class="st2" d="M-1188.9-538.9h-512.6V-265h512.6V17.1l44.4-41.3l385.3-358.5l20.8-19.3l-20.8-19.3l-385.3-358.5l-44.4-41.3
				V-538.9z"/>
		</g>
	</g>
	<g>
		<path class="st3" d="M3267.7,2215H3534c183.2,0,331.7,148.5,331.7,331.7s-148.5,331.7-331.7,331.7h-266.3
			c-183.2,0-331.7-148.5-331.7-331.7S3084.5,2215,3267.7,2215z M3267.7,2427.7c-65.7,0-118.9,53.3-118.9,118.9
			c0,65.7,53.3,118.9,118.9,118.9H3534c65.7,0,118.9-53.3,118.9-118.9c0-65.7-53.3-118.9-118.9-118.9H3267.7z"/>
		<path class="st4" d="M3267.7,2257.7c-159.6,0-289,129.4-289,289s129.4,289,289,289H3534c159.6,0,289-129.4,289-289
			s-129.4-289-289-289H3267.7z M3267.7,2215H3534c183.2,0,331.7,148.5,331.7,331.7s-148.5,331.7-331.7,331.7h-266.3
			c-183.2,0-331.7-148.5-331.7-331.7S3084.5,2215,3267.7,2215z M3267.7,2470.4c-42.1,0-76.2,34.1-76.2,76.2s34.1,76.2,76.2,76.2
			H3534c42.1,0,76.2-34.1,76.2-76.2s-34.1-76.2-76.2-76.2H3267.7z M3267.7,2427.7H3534c65.7,0,118.9,53.3,118.9,118.9
			c0,65.7-53.3,118.9-118.9,118.9h-266.3c-65.7,0-118.9-53.3-118.9-118.9C3148.7,2481,3202,2427.7,3267.7,2427.7z"/>
		<path class="st3" d="M4247.6,2215h266.3c183.2,0,331.7,148.5,331.7,331.7s-148.5,331.7-331.7,331.7h-266.3
			c-183.2,0-331.7-148.5-331.7-331.7S4064.4,2215,4247.6,2215z M4247.6,2427.7c-65.7,0-118.9,53.3-118.9,118.9
			c0,65.7,53.3,118.9,118.9,118.9h266.3c65.7,0,118.9-53.3,118.9-118.9c0-65.7-53.3-118.9-118.9-118.9H4247.6z"/>
		<path class="st4" d="M4247.6,2257.7c-159.6,0-289,129.4-289,289s129.4,289,289,289h266.3c159.6,0,289-129.4,289-289
			s-129.4-289-289-289H4247.6z M4247.6,2215h266.3c183.2,0,331.7,148.5,331.7,331.7s-148.5,331.7-331.7,331.7h-266.3
			c-183.2,0-331.7-148.5-331.7-331.7S4064.4,2215,4247.6,2215z M4247.6,2470.4c-42.1,0-76.2,34.1-76.2,76.2s34.1,76.2,76.2,76.2
			h266.3c42.1,0,76.2-34.1,76.2-76.2s-34.1-76.2-76.2-76.2H4247.6z M4247.6,2427.7h266.3c65.7,0,118.9,53.3,118.9,118.9
			c0,65.7-53.3,118.9-118.9,118.9h-266.3c-65.7,0-118.9-53.3-118.9-118.9C4128.7,2481,4181.9,2427.7,4247.6,2427.7z"/>
		<path class="st3" d="M2287.7,2215h266.3c183.2,0,331.7,148.5,331.7,331.7s-148.5,331.7-331.7,331.7h-266.3
			c-183.2,0-331.7-148.5-331.7-331.7S2104.6,2215,2287.7,2215z M2287.7,2427.7c-65.7,0-118.9,53.3-118.9,118.9
			c0,65.7,53.3,118.9,118.9,118.9h266.3c65.7,0,118.9-53.3,118.9-118.9c0-65.7-53.3-118.9-118.9-118.9H2287.7z"/>
		<path class="st4" d="M2287.7,2257.7c-159.6,0-289,129.4-289,289s129.4,289,289,289h266.3c159.6,0,289-129.4,289-289
			s-129.4-289-289-289H2287.7z M2287.7,2215h266.3c183.2,0,331.7,148.5,331.7,331.7s-148.5,331.7-331.7,331.7h-266.3
			c-183.2,0-331.7-148.5-331.7-331.7S2104.6,2215,2287.7,2215z M2287.7,2470.4c-42.1,0-76.2,34.1-76.2,76.2s34.1,76.2,76.2,76.2
			h266.3c42.1,0,76.2-34.1,76.2-76.2s-34.1-76.2-76.2-76.2H2287.7z M2287.7,2427.7h266.3c65.7,0,118.9,53.3,118.9,118.9
			c0,65.7-53.3,118.9-118.9,118.9h-266.3c-65.7,0-118.9-53.3-118.9-118.9C2168.8,2481,2222.1,2427.7,2287.7,2427.7z"/>
		<g transform="translate(1932 3042)">
			<g>
				<path id="h" class="st3" d="M-624.2-827h266.3c183.2,0,331.7,148.5,331.7,331.7s-148.5,331.7-331.7,331.7h-266.3
					c-183.2,0-331.7-148.5-331.7-331.7S-807.3-827-624.2-827z M-624.2-614.3c-65.7,0-118.9,53.3-118.9,118.9s53.3,118.9,118.9,118.9
					h266.3c65.7,0,118.9-53.3,118.9-118.9s-53.3-118.9-118.9-118.9H-624.2z"/>
			</g>
			<g>
				<path class="st5" d="M-624.2-827h266.3c183.2,0,331.7,148.5,331.7,331.7s-148.5,331.7-331.7,331.7h-266.3
					c-183.2,0-331.7-148.5-331.7-331.7S-807.3-827-624.2-827z M-624.2-614.3c-65.7,0-118.9,53.3-118.9,118.9s53.3,118.9,118.9,118.9
					h266.3c65.7,0,118.9-53.3,118.9-118.9s-53.3-118.9-118.9-118.9H-624.2z"/>
			</g>
		</g>
		<path class="st6" d="M1307.8,2257.7c-159.6,0-289,129.4-289,289s129.4,289,289,289h266.3c159.6,0,289-129.4,289-289
			s-129.4-289-289-289H1307.8z M1307.8,2215h266.3c183.2,0,331.7,148.5,331.7,331.7s-148.5,331.7-331.7,331.7h-266.3
			c-183.2,0-331.7-148.5-331.7-331.7S1124.7,2215,1307.8,2215z M1307.8,2470.4c-42.1,0-76.2,34.1-76.2,76.2s34.1,76.2,76.2,76.2
			h266.3c42.1,0,76.2-34.1,76.2-76.2s-34.1-76.2-76.2-76.2H1307.8z M1307.8,2427.7h266.3c65.7,0,118.9,53.3,118.9,118.9
			c0,65.7-53.3,118.9-118.9,118.9h-266.3c-65.7,0-118.9-53.3-118.9-118.9C1188.9,2481,1242.2,2427.7,1307.8,2427.7z"/>
		<path class="st6" d="M1630.3,2665.6c-65.7,0-118.9-53.3-118.9-118.9c0-65.7,53.3-118.9,118.9-118.9h606.4
			c65.7,0,118.9,53.3,118.9,118.9c0,65.7-53.3,118.9-118.9,118.9H1630.3z"/>
		<g transform="translate(1932 3042)">
			<g>
				<path id="l" class="st3" d="M-301.7-419.1h606.4c42.1,0,76.2-34.1,76.2-76.2c0-42.1-34.1-76.2-76.2-76.2h-606.4
					c-42.1,0-76.2,34.1-76.2,76.2C-377.9-453.2-343.9-419.1-301.7-419.1z"/>
			</g>
			<path class="st7" d="M-301.7-397.8h606.4c53.9,0,97.6-43.7,97.6-97.6c0-53.9-43.7-97.6-97.6-97.6h-606.4
				c-53.9,0-97.6,43.6-97.6,97.6S-355.6-397.8-301.7-397.8z"/>
		</g>
		<path class="st4" d="M2607.7,2665.6c-65.7,0-118.9-53.3-118.9-118.9c0-65.7,53.3-118.9,118.9-118.9h606.4
			c65.7,0,118.9,53.3,118.9,118.9c0,65.7-53.3,118.9-118.9,118.9H2607.7z"/>
		<g transform="translate(1932 3042)">
			<g>
				<path id="o" class="st3" d="M675.7-419.1h606.4c42.1,0,76.2-34.1,76.2-76.2c0-42.1-34.1-76.2-76.2-76.2H675.7
					c-42.1,0-76.2,34.1-76.2,76.2C599.5-453.2,633.6-419.1,675.7-419.1z"/>
			</g>
			<path class="st8" d="M675.7-397.8h606.4c53.9,0,97.6-43.7,97.6-97.6c0-53.9-43.7-97.6-97.6-97.6H675.7
				c-53.9,0-97.6,43.7-97.6,97.6C578.1-441.5,621.8-397.8,675.7-397.8z"/>
		</g>
		<path class="st4" d="M3585.1,2665.6c-65.7,0-118.9-53.3-118.9-118.9c0-65.7,53.3-118.9,118.9-118.9h606.4
			c65.7,0,118.9,53.3,118.9,118.9c0,65.7-53.3,118.9-118.9,118.9H3585.1z"/>
		<g transform="translate(1932 3042)">
			<g>
				<path id="r" class="st3" d="M1653.1-419.1h606.4c42.1,0,76.2-34.1,76.2-76.2c0-42.1-34.1-76.2-76.2-76.2h-606.4
					c-42.1,0-76.2,34.1-76.2,76.2C1576.9-453.2,1611-419.1,1653.1-419.1z"/>
			</g>
			<path class="st8" d="M1653.1-397.8h606.4c53.9,0,97.6-43.7,97.6-97.6c0-53.9-43.7-97.6-97.6-97.6h-606.4
				c-53.9,0-97.6,43.7-97.6,97.6C1555.5-441.5,1599.2-397.8,1653.1-397.8z"/>
		</g>
	</g>
	<g>
		<path class="st3" d="M6857,2347.3h159.8c109.9,0,199,89.3,199,199.3s-89.1,199.3-199,199.3H6857c-109.9,0-199-89.3-199-199.3
			S6747.2,2347.3,6857,2347.3z M6857,2475.1c-39.4,0-71.4,32-71.4,71.4c0,39.4,31.9,71.4,71.4,71.4h159.8c39.4,0,71.4-32,71.4-71.4
			c0-39.4-31.9-71.4-71.4-71.4H6857z"/>
		<g transform="translate(8014 3200)">
			<path id="v_1_" class="st5" d="M5555.1,1827.5h159.8c109.9,0,199,89.3,199,199.3s-89.1,199.3-199,199.3h-159.8
				c-109.9,0-199-89.3-199-199.3C5356.1,1916.7,5445.2,1827.5,5555.1,1827.5z M5555.1,1955.3c-39.4,0-71.4,32-71.4,71.4
				s31.9,71.4,71.4,71.4h159.8c39.4,0,71.4-32,71.4-71.4s-31.9-71.4-71.4-71.4H5555.1L5555.1,1955.3z"/>
		</g>
		<path class="st4" d="M6857,2373c-95.7,0-173.4,77.7-173.4,173.6c0,95.9,77.6,173.6,173.4,173.6h159.8
			c95.7,0,173.4-77.7,173.4-173.6c0-95.9-77.6-173.6-173.4-173.6H6857z M6857,2347.3h159.8c109.9,0,199,89.3,199,199.3
			s-89.1,199.3-199,199.3H6857c-109.9,0-199-89.3-199-199.3S6747.2,2347.3,6857,2347.3z M6857,2500.8c-25.3,0-45.7,20.5-45.7,45.8
			s20.4,45.8,45.7,45.8h159.8c25.3,0,45.7-20.5,45.7-45.8s-20.4-45.8-45.7-45.8H6857z M6857,2475.1h159.8c39.4,0,71.4,32,71.4,71.4
			c0,39.4-31.9,71.4-71.4,71.4H6857c-39.4,0-71.4-32-71.4-71.4C6785.7,2507.2,6817.6,2475.1,6857,2475.1z"/>
		<g transform="translate(8014 3200)">
			<g>
				<path id="w" class="st3" d="M-1744.9-852.7h159.8c109.9,0,199,89.3,199,199.3s-89.1,199.3-199,199.3h-159.8
					c-109.9,0-199-89.3-199-199.3S-1854.8-852.7-1744.9-852.7z M-1744.9-724.9c-39.4,0-71.4,32-71.4,71.4
					c0,39.4,31.9,71.4,71.4,71.4h159.8c39.4,0,71.4-32,71.4-71.4c0-39.4-31.9-71.4-71.4-71.4H-1744.9L-1744.9-724.9z"/>
			</g>
			<g>
				<path class="st5" d="M-1744.9-852.7h159.8c109.9,0,199,89.3,199,199.3s-89.1,199.3-199,199.3h-159.8
					c-109.9,0-199-89.3-199-199.3S-1854.8-852.7-1744.9-852.7z M-1744.9-724.9c-39.4,0-71.4,32-71.4,71.4
					c0,39.4,31.9,71.4,71.4,71.4h159.8c39.4,0,71.4-32,71.4-71.4c0-39.4-31.9-71.4-71.4-71.4H-1744.9L-1744.9-724.9z"/>
			</g>
		</g>
		<g transform="translate(8014 3200)">
			<path id="z_1_" class="st5" d="M4967.1,1827.5H5127c109.9,0,199,89.3,199,199.3s-89.1,199.3-199,199.3h-159.8
				c-109.9,0-199-89.3-199-199.3C4768.1,1916.7,4857.3,1827.5,4967.1,1827.5z M4967.1,1955.3c-39.4,0-71.4,32-71.4,71.4
				s31.9,71.4,71.4,71.4H5127c39.4,0,71.4-32,71.4-71.4s-31.9-71.4-71.4-71.4H4967.1L4967.1,1955.3z"/>
		</g>
		<path class="st6" d="M6269.1,2373c-95.7,0-173.4,77.7-173.4,173.6c0,95.9,77.6,173.6,173.4,173.6h159.8
			c95.7,0,173.4-77.7,173.4-173.6c0-95.9-77.6-173.6-173.4-173.6H6269.1z M6269.1,2347.3h159.8c109.9,0,199,89.3,199,199.3
			s-89.1,199.3-199,199.3h-159.8c-109.9,0-199-89.3-199-199.3S6159.2,2347.3,6269.1,2347.3z M6269.1,2500.8
			c-25.3,0-45.7,20.5-45.7,45.8s20.4,45.8,45.7,45.8h159.8c25.3,0,45.7-20.5,45.7-45.8s-20.4-45.8-45.7-45.8H6269.1z M6269.1,2475.1
			h159.8c39.4,0,71.4,32,71.4,71.4c0,39.4-31.9,71.4-71.4,71.4h-159.8c-39.4,0-71.4-32-71.4-71.4
			C6197.7,2507.2,6229.6,2475.1,6269.1,2475.1z"/>
		<path class="st6" d="M6462.6,2618.1c-39.4,0-71.4-32-71.4-71.4s31.9-71.4,71.4-71.4h363.8c39.4,0,71.4,32,71.4,71.4
			s-31.9,71.4-71.4,71.4H6462.6z"/>
		<g transform="translate(8014 3200)">
			<g>
				<path id="A" class="st3" d="M-1551.4-607.5h363.8c25.3,0,45.7-20.5,45.7-45.8s-20.4-45.8-45.7-45.8h-363.8
					c-25.3,0-45.7,20.5-45.7,45.8S-1576.7-607.5-1551.4-607.5z"/>
			</g>
			<path class="st9" d="M-1551.4-594.7h363.8c32.3,0,58.5-26.2,58.5-58.6s-26.2-58.6-58.5-58.6h-363.8c-32.3,0-58.5,26.2-58.5,58.6
				C-1610-621-1583.8-594.7-1551.4-594.7z"/>
		</g>
		<g transform="translate(8014 3200)">
			<path id="C_1_" class="st5" d="M5160.6,2072.6h363.8c25.3,0,45.7-20.5,45.7-45.8c0-25.3-20.4-45.8-45.7-45.8h-363.8
				c-25.3,0-45.7,20.5-45.7,45.8C5114.9,2052.1,5135.3,2072.6,5160.6,2072.6z"/>
		</g>
	</g>
	<path class="st4" d="M974.4,1831.8H810.8V1612c0-33.5-5.8-57.4-17.3-71.9c-11-14.4-27.4-21.6-49.3-21.6c-26.6,0-45.9,8.6-58,26
		c-11.6,17.3-17.3,39.5-17.3,66.7v136.8h51.9v83.9H557.2V1612c0-33.5-5.8-57.4-17.3-71.9c-11-14.4-27.4-21.6-49.3-21.6
		c-27.1,0-46.5,8.6-58,26c-11.6,17.3-17.3,39.5-17.3,66.7v136.8h74.5v83.9h-238v-83.9h51.9v-221.5h-51.1v-84.8h162.7v58.9
		c24.8-44.4,64.3-66.7,118.6-66.7c28.3,0,54.3,7,77.9,20.8c23.6,13.8,40.1,34.9,49.3,63.2c23.1-55.9,65.5-83.9,127.2-83.9
		c35.2,0,66.3,11,93.5,32.9c27.1,21.9,40.7,55.9,40.7,102.1v179.2h51.9V1831.8z"/>
	<path class="st4" d="M1060.1,1372.3v-116h111.6v116H1060.1z M1228,1831.8h-215.5v-83.9h51.9v-221.5h-56.3v-84.8h167.9v306.4h51.9
		V1831.8z"/>
	<path class="st4" d="M1594.8,1710.6c-5.8,45-21.4,77.9-46.7,98.7c-25.4,20.8-58.3,31.2-98.7,31.2c-43.3,0-78.5-10.6-105.6-32
		c-26.6-21.9-39.8-53.1-39.8-93.5v-193.9h-55.4v-79.7h55.4v-118.6h111.6v118.6h140.2v79.7h-140.2v174.8c0,34,15.6,51.1,46.7,51.1
		c7,0,16.2-2.8,27.7-8.6c12.1-6.4,19.9-24,23.4-52.8L1594.8,1710.6z"/>
	<path class="st4" d="M2023.6,1637.1c0,61.7-20.2,111.1-60.6,148s-91.7,55.4-154,55.4c-60.1,0-109-17.3-147.2-51.9
		c-37.5-35.2-56.3-84.3-56.3-147.2c0-57.1,17.3-106.2,51.9-147.2c34.6-41,87.1-61.5,157.5-61.5c70.4,0,122.6,20.5,156.6,61.5
		C2006.2,1534.7,2023.6,1582.2,2023.6,1637.1z M1908.5,1633.7c0-39.8-9.2-68.9-27.7-87.4c-18.5-18.4-41-27.7-67.5-27.7
		c-28.9,0-51.7,10.4-68.3,31.2c-16.2,20.2-24.2,48.7-24.2,85.7c0,33.5,7.5,61.7,22.5,84.8c15.6,23.1,38.6,34.6,69.3,34.6
		c28.8,0,51.9-10.6,69.3-32C1899.5,1700.8,1908.5,1671.1,1908.5,1633.7z"/>
	<path class="st4" d="M2073.3,1831.8v-141h132.4v141H2073.3z"/>
	<g>
		<path class="st6" d="M2781.2,1711.5c0,43.5-17.3,75.8-51.7,96.9c-34.5,21.2-79.2,31.7-134.3,31.7c-28.4,0-57-3-85.6-9.1
			c-28.6-6.1-56-15.7-82.2-29.1l15.7-109.5l86.9,9.5v48.7c10.5,3.4,21.4,5.6,33,6.5c11.6,0.8,20.3,1.3,26,1.3
			c21.4,0,40-3.4,55.6-10.5c15.7-7,23.5-17.4,23.5-31.3c0-16.8-11.9-27.8-35.6-33c-23.8-5.2-51.3-10.5-82.6-15.7
			c-31.3-5.2-58.8-15.9-82.6-32.2c-23.8-16.2-35.6-43.7-35.6-82.6c0-48.1,18.7-80.4,56-96.9c37.4-16.5,76-24.8,116-24.8
			c52.2,0,101.1,11.9,146.9,35.6l9.5,99.9l-86.9,9.5l-7-54.8c-19.1-6.4-39.7-9.5-61.7-9.5c-14.5,0-26.8,3-36.9,9.1
			s-15.2,15.5-15.2,28.2c0,16.8,11.5,28,34.3,33.5c22.9,5.5,49.5,10.9,80,16.1c30.4,5.2,57,15.8,80,31.7
			C2769.8,1647,2781.2,1673.8,2781.2,1711.5z"/>
		<path class="st6" d="M3295.7,1831.4h-216.4v-84.3h52.2v-136.4c0-33.6-5.9-57.6-17.8-72.1c-11.9-14.5-28.8-21.7-50.8-21.7
			c-25.5,0-45.3,7.8-59.5,23.5s-21.9,36.2-23,61.7v145.1h52.2v84.3H2816v-84.3h52.2v-428.5H2816v-85.2h164.2v265.9
			c26-45.2,68.1-67.8,126.1-67.8c37.1,0,69.3,11,96.5,33s40.9,56.2,40.9,102.5v179.9h52.2L3295.7,1831.4L3295.7,1831.4z"/>
		<path class="st6" d="M3744.2,1635.8c0,62-20.3,111.6-60.8,148.6c-40.5,37.1-92.1,55.6-154.7,55.6c-60.3,0-109.4-17.5-147.3-52.6
			c-37.9-35-57-84.2-57-147.3c0-57.4,17.4-106.6,52.2-147.7c34.8-41.1,87.5-61.7,158.2-61.7c70.7,0,123.3,20.4,157.7,61.3
			C3727,1532.8,3744.2,1580.8,3744.2,1635.8z M3628.7,1632.4c0-40-9.3-69.3-27.8-87.8c-18.5-18.5-41.1-27.8-67.8-27.8
			c-29,0-51.7,10.3-68.3,30.8c-16.5,20.6-24.8,49.4-24.8,86.5c0,33.6,7.7,62,23,85.2c15.3,23.2,38.4,34.8,69.1,34.8
			c29,0,52.3-10.9,69.9-32.6C3619.8,1699.7,3628.7,1670,3628.7,1632.4z"/>
		<path class="st6" d="M4034.5,1434.2c11,0,23.3,1.6,36.9,4.8c13.6,3.2,27.1,8.9,40.5,16.9l17.4,137.4l-85.2,9.5l-14.7-66.9
			c-11.6-7-21.7-10.5-30.4-10.5c-12.7,0-23.9,4.9-33.5,14.7c-9.5,9.9-14.3,24.4-14.3,43.5v163.4h69.5v84.3h-233.8v-84.3h52.2v-222.5
			h-56.5v-85.2h159.9v74.7c6.4-22.6,16.7-41.5,30.8-57C3987.5,1441.9,4007.9,1434.2,4034.5,1434.2z"/>
		<path class="st6" d="M4497.8,1709.7c-5.8,45.2-21.4,78.2-46.9,99.1c-25.5,20.9-58.5,31.3-99.1,31.3c-43.5,0-78.6-10.9-105.6-32.6
			c-27-21.7-40.5-52.8-40.5-93.5v-194.6h-55.6v-80h55.6v-119.1h112.1v119.1h140.8v80h-140.8V1695c0,34.2,15.7,51.3,46.9,51.3
			c7,0,16.3-3,28.2-9.1c11.9-6.1,19.5-23.6,23-52.6L4497.8,1709.7z"/>
		<path class="st6" d="M4893.2,1707.9c-2.9,34.8-20,65.5-51.3,92.1c-31.3,26.6-75,40-131.2,40c-58.5,0-106.8-16.5-144.7-49.5
			c-37.9-33-57-82.2-57-147.7c0-60.2,17.3-110.6,51.7-150.8c34.5-40.3,82.7-60.4,144.7-60.4c54.4,0,98.7,15.7,132.5,46.9
			c33.9,31.3,51.1,72.4,51.7,123.5c0,19.1-2,37.9-6.1,56.5h-257.3c6.4,62,37.1,93,92.1,93c30.2,0,50.5-7.2,61.3-21.7
			c10.7-14.5,17.3-27.6,19.5-39.1L4893.2,1707.9z M4774.2,1593.3c2.3-19.7-1.9-38.3-12.6-55.6c-10.7-17.4-29.4-26-56-26
			c-23.2,0-41.1,7.5-53.9,22.6s-20.9,34.8-24.4,59.1L4774.2,1593.3L4774.2,1593.3z"/>
		<path class="st6" d="M5183.5,1434.2c11,0,23.3,1.6,36.9,4.8c13.6,3.2,27.1,8.9,40.5,16.9l17.4,137.4l-85.2,9.5l-14.7-66.9
			c-11.6-7-21.7-10.5-30.4-10.5c-12.7,0-23.9,4.9-33.5,14.7c-9.5,9.9-14.3,24.4-14.3,43.5v163.4h69.5v84.3h-233.8v-84.3h52.2v-222.5
			h-56.6v-85.2h159.9v74.7c6.4-22.6,16.7-41.5,30.8-57C5136.4,1441.9,5156.8,1434.2,5183.5,1434.2z"/>
		<path class="st6" d="M5795.3,1709.7c-5.8,45.2-21.4,78.2-46.9,99.1c-25.5,20.9-58.5,31.3-99.1,31.3c-43.5,0-78.6-10.9-105.6-32.6
			c-27-21.7-40.5-52.8-40.5-93.5v-194.6h-55.6v-80h55.6v-119.1h112.1v119.1h140.8v80h-140.8V1695c0,34.2,15.7,51.3,46.9,51.3
			c7,0,16.3-3,28.2-9.1c11.9-6.1,19.5-23.6,23-52.6L5795.3,1709.7z"/>
		<path class="st6" d="M6282.1,1831.4h-216.4v-84.3h52.2v-136.4c0-33.6-5.9-57.6-17.8-72.1c-11.9-14.5-28.8-21.7-50.8-21.7
			c-25.5,0-45.3,7.8-59.5,23.5s-21.9,36.2-23,61.7v145.1h52.2v84.3h-216.4v-84.3h52.2v-428.5h-52.2v-85.2h164.2v265.9
			c26-45.2,68.1-67.8,126.1-67.8c37.1,0,69.3,11,96.5,33c27.2,22,40.9,56.2,40.9,102.5v179.9h52.2L6282.1,1831.4L6282.1,1831.4z"/>
		<path class="st6" d="M6537.5,1831.4h-216.4v-84.3h52.2v-222.5h-56.5v-85.2h168.6V1747h52.2L6537.5,1831.4L6537.5,1831.4z
			 M6368.9,1369.9v-116.5h112.1v116.5H6368.9z"/>
		<path class="st6" d="M7058.1,1831.4h-216.4v-84.3h52.2v-136.4c0-33.6-5.6-57.6-16.9-72.1c-11.3-14.5-28-21.7-50-21.7
			c-26.6,0-47.2,8.3-61.7,24.8c-14.5,16.5-22,38.1-22.6,64.7v140.8h52.2v84.3h-216.4v-84.3h52.2v-222.5H6574v-85.2h168.6v60
			c26-45.2,68.1-67.8,126.1-67.8c37.1,0,69.3,11,96.5,33c27.2,22,40.9,56.2,40.9,102.5v179.9h52.2L7058.1,1831.4L7058.1,1831.4z"/>
		<path class="st6" d="M7550.9,1524.6h-52.2v286.8c0,62.6-17.7,113.7-53,153.4c-35.3,39.7-89.8,59.5-163.4,59.5
			c-40.5,0-79.4-8.3-116.5-24.8c-37.1-16.5-64-47.4-80.8-92.5l86-48.7c27.8,51.6,65.2,77.4,112.1,77.4c30.2,0,54.9-10.9,74.3-32.6
			c19.4-21.7,29.1-52.3,29.1-91.7v-51.3c-10.5,19.7-25.8,36.5-46.1,50.4c-20.3,13.9-47.8,20.9-82.6,20.9
			c-45.8,0-85.8-15.9-119.9-47.8c-34.2-31.8-51.3-78.8-51.3-140.8c0-58.5,15.7-108.4,46.9-149.5c31.3-41.1,74.5-61.7,129.5-61.7
			c30.7,0,56.2,6.4,76.5,19.1c20.3,12.7,35.9,29.2,46.9,49.5v-60.8h164.2v85.2H7550.9z M7386.6,1633.2v-9.5c0-32.4-8.3-57.8-24.8-76
			c-16.5-18.3-37.5-27.4-63-27.4c-25,0-45.6,9.3-62.1,27.8c-16.5,18.6-24.8,47.8-24.8,87.8c0,37.7,7.4,64.9,22.2,81.7
			c14.7,16.8,34,25.2,57.8,25.2c30.7,0,54.2-11,70.4-33C7378.5,1687.7,7386.6,1662.2,7386.6,1633.2z"/>
		<path class="st6" d="M7940.3,1711.5c0,43.5-17.3,75.8-51.7,96.9c-34.5,21.2-79.2,31.7-134.3,31.7c-28.4,0-57-3-85.6-9.1
			c-28.6-6.1-56-15.7-82.2-29.1l15.7-109.5l86.9,9.5v48.7c10.5,3.4,21.4,5.6,33,6.5c11.6,0.8,20.3,1.3,26,1.3
			c21.4,0,40-3.4,55.6-10.5c15.7-7,23.5-17.4,23.5-31.3c0-16.8-11.9-27.8-35.6-33c-23.8-5.2-51.3-10.5-82.6-15.7
			c-31.3-5.2-58.8-15.9-82.6-32.2c-23.8-16.2-35.6-43.7-35.6-82.6c0-48.1,18.7-80.4,56-96.9c37.4-16.5,76-24.8,116-24.8
			c52.2,0,101.1,11.9,146.9,35.6l9.5,99.9l-86.9,9.5l-7-54.8c-19.1-6.4-39.7-9.5-61.7-9.5c-14.5,0-26.8,3-36.9,9.1
			s-15.2,15.5-15.2,28.2c0,16.8,11.5,28,34.3,33.5c22.9,5.5,49.5,10.9,80,16.1c30.4,5.2,57,15.8,80,31.7
			C7928.8,1647,7940.3,1673.8,7940.3,1711.5z"/>
	</g>
</g>
</svg>
